<?xml version="1.0" standalone="no"?>
<!DOCTYPE svg PUBLIC "-//W3C//DTD SVG 20010904//EN"
 "http://www.w3.org/TR/2001/REC-SVG-20010904/DTD/svg10.dtd">
<svg version="1.0" xmlns="http://www.w3.org/2000/svg"
 width="782.000000pt" height="782.000000pt" viewBox="0 0 782.000000 782.000000"
 preserveAspectRatio="xMidYMid meet">
<metadata>
Created by potrace 1.14, written by Peter Selinger 2001-2017
</metadata>
<g transform="translate(0.000000,782.000000) scale(0.100000,-0.100000)"
fill="#000000" stroke="none">
<path d="M3813 7186 c-102 -33 -190 -109 -242 -206 -66 -123 -61 117 -61
-3070 0 -3191 -5 -2947 62 -3071 39 -74 121 -152 195 -187 48 -22 72 -27 138
-27 69 0 89 4 147 32 109 51 192 156 232 292 14 49 16 330 16 2961 0 3203 5
2941 -60 3070 -82 161 -277 255 -427 206z"/>
<path d="M2555 6090 c-121 -40 -219 -147 -266 -290 l-24 -75 0 -1815 0 -1815
24 -75 c84 -254 317 -374 526 -271 114 56 209 188 234 325 15 84 15 3588 0
3672 -46 253 -279 415 -494 344z"/>
<path d="M6307 5926 c-103 -30 -193 -110 -248 -221 -62 -127 -60 -46 -57
-1828 l3 -1622 23 -67 c125 -369 543 -413 714 -75 60 120 58 44 58 1797 0
1753 2 1677 -58 1797 -70 137 -185 220 -318 228 -42 3 -88 -1 -117 -9z"/>
<path d="M1329 5286 c-141 -38 -259 -175 -295 -345 -20 -98 -20 -1964 0 -2062
54 -253 270 -406 482 -341 127 39 227 144 276 290 l23 67 3 982 c3 1079 4
1064 -57 1188 -88 178 -261 267 -432 221z"/>
<path d="M5097 5236 c-103 -30 -193 -110 -248 -221 -60 -123 -60 -114 -57
-1138 l3 -932 23 -67 c12 -37 42 -96 66 -130 173 -255 506 -226 649 55 57 113
57 110 57 1107 0 997 0 994 -57 1107 -89 175 -271 266 -436 219z"/>
</g>
</svg>
